<?xml version="1.0" encoding="utf-8"?>
<!-- Generator: Adobe Illustrator 23.0.3, SVG Export Plug-In . SVG Version: 6.00 Build 0)  -->
<svg version="1.1" id="Layer_1" xmlns="http://www.w3.org/2000/svg" xmlns:xlink="http://www.w3.org/1999/xlink" x="0px" y="0px"
	 viewBox="0 0 311.96 109.81" style="enable-background:new 0 0 311.96 109.81;" xml:space="preserve">
<style type="text/css">
	.st0{fill:#1E417C;}
	.st1{fill:#FFFFFF;}
	.st2{fill:#FED206;}
</style>
<g>
	<g>
		<path class="st0" d="M108.12,28.79c0-0.38,0-0.46-0.38-0.46h-0.99c-1.17,0-1.5,0.64-1.98,1.81c-0.19,0.1-0.5,0.06-0.59-0.14
			c0.34-1.1,0.42-2.1,0.53-2.72c0.06-0.05,0.14-0.08,0.22-0.08s0.16,0.02,0.22,0.06c0.08,0.27,0.13,0.34,1.34,0.34h5.95
			c1.06,0,1.3-0.02,1.44-0.35c0.06-0.03,0.11-0.05,0.21-0.05c0.1,0,0.21,0.06,0.24,0.11c-0.16,0.54-0.27,1.84-0.24,2.75
			c-0.08,0.14-0.51,0.18-0.59,0.05c-0.27-1.02-0.5-1.78-1.7-1.78h-0.96c-0.38,0-0.43,0.05-0.43,0.46v7.06c0,1.49,0.1,1.6,0.82,1.71
			l0.64,0.08c0.11,0.1,0.11,0.46,0,0.56c-1.04-0.03-1.84-0.05-2.56-0.05c-0.77,0-1.6,0.02-2.72,0.05c-0.13-0.1-0.13-0.46,0-0.56
			l0.72-0.08c0.72-0.11,0.82-0.22,0.82-1.71V28.79z"/>
		<path class="st0" d="M122.17,33.08c-0.66,0-0.67,0.02-0.67,0.46v2.3c0,1.49,0.1,1.6,0.82,1.73l0.51,0.06
			c0.13,0.1,0.13,0.46,0,0.56c-0.91-0.03-1.71-0.05-2.43-0.05c-0.77,0-1.57,0.02-2.39,0.05c-0.13-0.1-0.13-0.46,0-0.56l0.38-0.05
			c0.72-0.14,0.82-0.26,0.82-1.74V29.9c0-1.49-0.1-1.6-0.82-1.74l-0.38-0.05c-0.13-0.1-0.13-0.46,0-0.56
			c0.78,0.03,1.62,0.05,2.39,0.05c0.72,0,1.52-0.02,2.22-0.05c0.13,0.1,0.13,0.46,0,0.56l-0.34,0.05c-0.69,0.14-0.78,0.26-0.78,1.74
			v1.86c0,0.46,0.02,0.48,0.67,0.48h3.33c0.67,0,0.67-0.02,0.67-0.48V29.9c0-1.49-0.08-1.6-0.82-1.73l-0.43-0.06
			c-0.13-0.1-0.13-0.46,0-0.56c0.88,0.03,1.66,0.05,2.43,0.05c0.78,0,1.52-0.02,2.26-0.05c0.13,0.1,0.13,0.46,0,0.56l-0.32,0.05
			c-0.74,0.14-0.83,0.26-0.83,1.74v5.96c0,1.49,0.1,1.6,0.83,1.73l0.38,0.06c0.13,0.1,0.13,0.46,0,0.56
			c-0.8-0.03-1.58-0.05-2.32-0.05c-0.8,0-1.58,0.02-2.35,0.05c-0.13-0.1-0.13-0.46,0-0.56l0.35-0.05c0.74-0.14,0.82-0.26,0.82-1.74
			v-2.3c0-0.45,0-0.46-0.67-0.46H122.17z"/>
		<path class="st0" d="M137.42,31.76c0,0.45,0.02,0.48,0.45,0.48h1.1c0.83,0,1.01-0.11,1.18-0.88l0.08-0.4
			c0.11-0.13,0.51-0.13,0.59,0.02c-0.03,0.51-0.05,1.09-0.05,1.7s0.02,1.18,0.05,1.7c-0.08,0.14-0.48,0.16-0.59,0.02l-0.08-0.4
			c-0.18-0.77-0.35-0.9-1.18-0.9h-1.1c-0.43,0-0.45,0.02-0.45,0.5v1.91c0,0.74,0.06,1.25,0.26,1.52c0.21,0.29,0.51,0.42,1.68,0.42
			c1.39,0,1.94-0.05,2.82-1.86c0.13-0.18,0.53-0.11,0.59,0.08c-0.06,0.83-0.45,2.13-0.67,2.56c-0.85-0.03-2.38-0.05-3.7-0.05h-2.08
			c-0.77,0-1.55,0.02-2.75,0.05c-0.13-0.1-0.13-0.48,0-0.56l0.75-0.11c0.72-0.1,0.82-0.21,0.82-1.68v-5.97c0-1.46-0.1-1.57-0.82-1.7
			l-0.4-0.08c-0.14-0.1-0.13-0.46,0.03-0.56c0.75,0.03,1.54,0.05,2.31,0.05h3.39c1.02,0,1.94-0.02,2.15-0.05
			c0.02,0.26,0.13,1.41,0.21,2.48c-0.06,0.18-0.43,0.21-0.59,0.06c-0.18-0.56-0.4-1.04-0.61-1.26c-0.3-0.3-0.78-0.5-1.57-0.5h-1.28
			c-0.53,0-0.53,0.03-0.53,0.62V31.76z"/>
		<path class="st0" d="M154.75,29.9c0-1.49-0.1-1.6-0.82-1.73l-0.4-0.08c-0.13-0.1-0.14-0.45,0.03-0.54
			c0.77,0.03,1.57,0.05,2.34,0.05c0.78,0,1.57-0.02,2.34-0.05c0.13,0.1,0.13,0.45,0,0.54l-0.38,0.06c-0.72,0.14-0.82,0.26-0.82,1.74
			v3.7c0,1.87,0.21,3.94,2.64,3.94c2.05,0,2.67-1.79,2.67-3.99v-1.94c0-1.3-0.06-2.51-0.24-2.93c-0.14-0.34-0.5-0.43-0.93-0.51
			l-0.43-0.08c-0.13-0.13-0.1-0.45,0-0.54c0.86,0.03,1.49,0.05,2.15,0.05c0.59,0,1.18-0.02,1.79-0.05c0.1,0.1,0.13,0.42,0,0.54
			l-0.29,0.06c-0.42,0.1-0.72,0.19-0.86,0.53c-0.18,0.42-0.24,1.63-0.24,2.93v1.79c0,1.5-0.14,2.88-1.02,3.86
			c-0.7,0.75-1.87,1.15-3.17,1.15c-1.22,0-2.31-0.19-3.17-0.9c-0.83-0.69-1.18-1.87-1.18-3.62V29.9z"/>
		<path class="st0" d="M178.3,35.44c0,1.04,0,2.05,0.03,2.58c-0.11,0.19-0.56,0.37-0.94,0.37c-0.02,0-0.54-0.82-1.3-1.74l-3.7-4.58
			c-0.91-1.15-1.46-1.81-1.74-2.05c-0.08,0.16-0.08,0.43-0.08,1.02v3.11c0,1.3,0.06,2.5,0.24,2.93c0.14,0.34,0.51,0.43,0.93,0.51
			l0.45,0.06c0.13,0.13,0.1,0.46,0,0.56c-0.86-0.03-1.5-0.05-2.15-0.05c-0.59,0-1.18,0.02-1.79,0.05c-0.1-0.1-0.13-0.43,0-0.56
			l0.27-0.05c0.43-0.1,0.74-0.19,0.88-0.53c0.16-0.43,0.22-1.63,0.22-2.93v-4.07c0-0.88,0-1.14-0.11-1.36
			c-0.11-0.27-0.35-0.43-0.91-0.54l-0.45-0.06c-0.11-0.13-0.1-0.51,0.06-0.56c0.75,0.03,1.55,0.05,2.21,0.05
			c0.54,0,1.01-0.02,1.34-0.05c0.16,0.72,1.2,1.94,2.64,3.65l1.34,1.58c0.72,0.83,1.17,1.39,1.54,1.76
			c0.06-0.16,0.06-0.43,0.06-0.72v-2.21c0-1.3-0.06-2.5-0.24-2.93c-0.14-0.34-0.5-0.43-0.93-0.51l-0.43-0.06
			c-0.13-0.13-0.1-0.46,0-0.56c0.86,0.03,1.49,0.05,2.15,0.05c0.59,0,1.17-0.02,1.79-0.05c0.1,0.1,0.13,0.43,0,0.56l-0.29,0.05
			c-0.42,0.1-0.72,0.19-0.86,0.53c-0.18,0.43-0.24,1.63-0.24,2.93V35.44z"/>
		<path class="st0" d="M186.97,35.82c0,1.5,0.1,1.62,0.83,1.75l0.45,0.08c0.13,0.1,0.11,0.46-0.02,0.56
			c-0.86-0.03-1.65-0.05-2.4-0.05c-0.77,0-1.57,0.02-2.43,0.05c-0.13-0.1-0.13-0.46,0-0.56l0.45-0.08c0.74-0.13,0.83-0.24,0.83-1.75
			v-5.89c0-1.5-0.1-1.62-0.83-1.74l-0.45-0.08c-0.13-0.1-0.13-0.46,0-0.56c0.86,0.03,1.66,0.05,2.43,0.05
			c0.75,0,1.55-0.02,2.42-0.05c0.13,0.1,0.13,0.46,0,0.56l-0.45,0.08c-0.74,0.13-0.83,0.24-0.83,1.74V35.82z"/>
		<path class="st0" d="M199.08,34.19c-0.82,1.94-1.25,3.2-1.62,4.1c-0.13,0.08-0.32,0.13-0.56,0.13c-0.19,0-0.34-0.05-0.43-0.13
			c-0.18-0.43-0.45-1.28-0.67-1.82l-2.59-6.51c-0.66-1.62-0.62-1.55-1.39-1.75l-0.45-0.11c-0.13-0.18-0.08-0.46,0.06-0.54
			c0.82,0.02,1.34,0.05,2.18,0.05c0.74,0,1.42-0.02,2.4-0.05c0.13,0.1,0.11,0.4,0.02,0.54l-0.48,0.1c-0.29,0.06-0.4,0.16-0.4,0.3
			c0,0.13,0.26,0.8,0.64,1.76l1.41,3.6c0.22,0.59,0.38,0.96,0.5,1.23c0.13-0.27,0.32-0.7,0.51-1.18l0.59-1.5
			c0.42-1.01,1.07-2.8,1.26-3.34c0.11-0.3,0.16-0.48,0.16-0.58c0-0.11-0.05-0.19-0.43-0.27l-0.46-0.11
			c-0.13-0.13-0.13-0.46,0.06-0.54c0.75,0.03,1.36,0.05,1.97,0.05c0.54,0,1.02-0.02,1.49-0.05c0.13,0.06,0.14,0.45,0.03,0.54
			l-0.42,0.08c-0.45,0.1-0.67,0.22-0.88,0.56c-0.35,0.53-0.77,1.39-1.33,2.69L199.08,34.19z"/>
		<path class="st0" d="M209.23,31.76c0,0.45,0.02,0.48,0.45,0.48h1.1c0.83,0,1.01-0.11,1.18-0.88l0.08-0.4
			c0.11-0.13,0.51-0.13,0.59,0.02c-0.03,0.51-0.05,1.09-0.05,1.7s0.02,1.18,0.05,1.7c-0.08,0.14-0.48,0.16-0.59,0.02l-0.08-0.4
			c-0.18-0.77-0.35-0.9-1.18-0.9h-1.1c-0.43,0-0.45,0.02-0.45,0.5v1.91c0,0.74,0.06,1.25,0.26,1.52c0.21,0.29,0.51,0.42,1.68,0.42
			c1.39,0,1.94-0.05,2.82-1.86c0.13-0.18,0.53-0.11,0.59,0.08c-0.06,0.83-0.45,2.13-0.67,2.56c-0.85-0.03-2.39-0.05-3.7-0.05h-2.08
			c-0.77,0-1.55,0.02-2.75,0.05c-0.13-0.1-0.13-0.48,0-0.56l0.75-0.11c0.72-0.1,0.82-0.21,0.82-1.68v-5.97c0-1.46-0.1-1.57-0.82-1.7
			l-0.4-0.08c-0.14-0.1-0.13-0.46,0.03-0.56c0.75,0.03,1.54,0.05,2.31,0.05h3.39c1.02,0,1.94-0.02,2.15-0.05
			c0.02,0.26,0.13,1.41,0.21,2.48c-0.06,0.18-0.43,0.21-0.59,0.06c-0.18-0.56-0.4-1.04-0.61-1.26c-0.3-0.3-0.78-0.5-1.57-0.5h-1.28
			c-0.53,0-0.53,0.03-0.53,0.62V31.76z"/>
		<path class="st0" d="M219.45,30.19c0-1.6-0.03-1.78-0.7-1.87l-0.43-0.06c-0.16-0.08-0.16-0.48,0.03-0.56
			c1.2-0.08,2.45-0.14,3.97-0.14c1.36,0,2.53,0.21,3.14,0.58c0.93,0.54,1.41,1.34,1.41,2.37c0,1.42-0.96,2.03-1.7,2.4
			c-0.16,0.08-0.16,0.18-0.08,0.35c1.06,2.14,1.71,3.35,2.48,4c0.42,0.34,0.83,0.43,1.07,0.45c0.14,0.08,0.14,0.32,0.06,0.42
			c-0.26,0.11-0.77,0.14-1.26,0.14c-1.47,0-2.4-0.53-3.11-1.68c-0.51-0.85-0.88-1.63-1.25-2.48c-0.19-0.43-0.45-0.56-0.85-0.56
			c-0.56,0-0.59,0.03-0.59,0.35v1.97c0,1.47,0.1,1.58,0.82,1.71l0.43,0.08c0.11,0.08,0.11,0.46,0,0.56
			c-0.85-0.03-1.58-0.05-2.35-0.05c-0.8,0-1.5,0.02-2.34,0.05c-0.13-0.1-0.13-0.48,0-0.56l0.43-0.08c0.72-0.13,0.82-0.24,0.82-1.71
			V30.19z M221.64,32.22c0,0.56,0.05,0.61,0.99,0.61c0.58,0,0.91-0.14,1.22-0.45c0.27-0.27,0.58-0.78,0.58-1.73
			c0-1.44-0.85-2.37-2.1-2.37c-0.66,0-0.66,0.05-0.69,0.82V32.22z"/>
		<path class="st0" d="M234.87,38.41c-1.47,0-2.39-0.42-2.72-0.61c-0.3-0.35-0.51-1.5-0.51-2.59c0.11-0.21,0.48-0.22,0.61-0.05
			c0.32,1.04,1.39,2.51,2.75,2.51c1.18,0,1.73-0.82,1.73-1.62c0-1.3-1.22-2.07-2.18-2.54c-1.15-0.58-2.4-1.54-2.42-3.12
			c0-1.81,1.39-3.06,3.71-3.06c0.53,0,1.18,0.06,1.82,0.26c0.21,0.06,0.35,0.1,0.54,0.13c0.13,0.35,0.29,1.22,0.29,2.29
			c-0.08,0.19-0.48,0.21-0.62,0.05c-0.27-0.82-0.96-1.98-2.11-1.98c-1.06,0-1.63,0.69-1.63,1.49c0,0.74,0.66,1.41,1.46,1.83
			l1.06,0.56c0.99,0.53,2.26,1.46,2.26,3.22C238.91,37.13,237.29,38.41,234.87,38.41z"/>
		<path class="st0" d="M246.51,35.82c0,1.5,0.1,1.62,0.83,1.75l0.45,0.08c0.13,0.1,0.11,0.46-0.02,0.56
			c-0.86-0.03-1.65-0.05-2.4-0.05c-0.77,0-1.57,0.02-2.43,0.05c-0.13-0.1-0.13-0.46,0-0.56l0.45-0.08c0.74-0.13,0.83-0.24,0.83-1.75
			v-5.89c0-1.5-0.1-1.62-0.83-1.74l-0.45-0.08c-0.13-0.1-0.13-0.46,0-0.56c0.86,0.03,1.66,0.05,2.43,0.05
			c0.75,0,1.55-0.02,2.42-0.05c0.13,0.1,0.13,0.46,0,0.56l-0.45,0.08c-0.74,0.13-0.83,0.24-0.83,1.74V35.82z"/>
		<path class="st0" d="M255.43,28.79c0-0.38,0-0.46-0.38-0.46h-0.99c-1.17,0-1.5,0.64-1.98,1.81c-0.19,0.1-0.5,0.06-0.59-0.14
			c0.34-1.1,0.42-2.1,0.53-2.72c0.06-0.05,0.14-0.08,0.22-0.08s0.16,0.02,0.22,0.06c0.08,0.27,0.13,0.34,1.34,0.34h5.95
			c1.06,0,1.3-0.02,1.44-0.35c0.06-0.03,0.11-0.05,0.21-0.05c0.1,0,0.21,0.06,0.24,0.11c-0.16,0.54-0.27,1.84-0.24,2.75
			c-0.08,0.14-0.51,0.18-0.59,0.05c-0.27-1.02-0.5-1.78-1.7-1.78h-0.96c-0.38,0-0.43,0.05-0.43,0.46v7.06c0,1.49,0.1,1.6,0.82,1.71
			l0.64,0.08c0.11,0.1,0.11,0.46,0,0.56c-1.04-0.03-1.84-0.05-2.56-0.05c-0.77,0-1.6,0.02-2.72,0.05c-0.13-0.1-0.13-0.46,0-0.56
			l0.72-0.08c0.72-0.11,0.82-0.22,0.82-1.71V28.79z"/>
		<path class="st0" d="M270.85,35.85c0,1.49,0.1,1.6,0.82,1.71l0.64,0.08c0.11,0.1,0.11,0.46,0,0.56c-1.04-0.03-1.82-0.05-2.59-0.05
			c-0.77,0-1.57,0.02-2.51,0.05c-0.13-0.1-0.13-0.46,0-0.56l0.54-0.08c0.72-0.11,0.82-0.22,0.82-1.71v-0.8c0-0.8-0.02-1.06-0.43-1.9
			l-1.9-3.94c-0.32-0.66-0.46-0.9-1.02-1.01l-0.54-0.1c-0.14-0.13-0.13-0.51,0.06-0.56c0.72,0.03,1.31,0.05,2.26,0.05
			c0.98,0,1.79-0.02,2.34-0.05c0.14,0.06,0.18,0.43,0.03,0.56l-0.54,0.13c-0.29,0.06-0.38,0.13-0.38,0.14
			c0,0.13,0.08,0.37,0.42,1.12l0.75,1.71c0.24,0.53,0.54,1.17,0.74,1.57c0.46-0.78,0.91-1.71,1.34-2.53
			c0.61-1.14,0.83-1.67,0.83-1.86c0-0.1-0.16-0.16-0.54-0.22l-0.37-0.06c-0.13-0.08-0.14-0.48,0.02-0.56
			c0.64,0.03,1.22,0.05,1.79,0.05c0.61,0,1.1-0.02,1.57-0.05c0.19,0.06,0.19,0.45,0.06,0.56l-0.42,0.08
			c-0.29,0.06-0.59,0.16-0.77,0.38c-0.24,0.3-0.64,0.88-1.41,2.27l-1.01,1.83c-0.42,0.75-0.58,1.15-0.58,2.06V35.85z"/>
		<path class="st0" d="M296.36,32.83c0,3.49-2.34,5.59-5.78,5.59c-3.22,0-5.55-2.11-5.55-5.46c0-3.17,2.37-5.62,5.71-5.62
			C294.07,27.34,296.36,29.58,296.36,32.83z M290.61,28.07c-1.97,0-3.03,1.84-3.03,4.51c0,1.95,0.69,5.09,3.3,5.09
			c2.1,0,2.91-2.05,2.91-4.64C293.8,30.3,292.6,28.07,290.61,28.07z"/>
		<path class="st0" d="M304.13,31.88c0,0.43,0.02,0.48,0.45,0.48h1.23c0.85,0,1.01-0.11,1.18-0.9l0.08-0.38
			c0.11-0.14,0.51-0.13,0.61,0.02c-0.03,0.51-0.05,1.1-0.05,1.71c0,0.59,0.02,1.18,0.05,1.66c-0.1,0.14-0.5,0.16-0.61,0.02
			L307,34.11c-0.18-0.77-0.34-0.9-1.18-0.9h-1.23c-0.43,0-0.45,0.05-0.45,0.48v2.16c0,1.49,0.1,1.6,0.82,1.71l0.59,0.08
			c0.11,0.1,0.11,0.46,0,0.56c-0.99-0.03-1.78-0.05-2.55-0.05c-0.74,0-1.54,0.02-2.5,0.05c-0.13-0.1-0.13-0.46,0-0.56l0.53-0.08
			c0.72-0.11,0.82-0.22,0.82-1.71V29.9c0-1.49-0.1-1.6-0.82-1.74l-0.32-0.05c-0.14-0.1-0.14-0.5,0.03-0.56
			c0.69,0.03,1.49,0.05,2.26,0.05h3.36c1.02,0,1.94-0.02,2.16-0.05c0,0.27,0,1.42,0.03,2.5c-0.06,0.18-0.42,0.19-0.61,0.06
			c-0.18-0.66-0.3-1.04-0.46-1.25c-0.27-0.34-0.75-0.53-1.57-0.53h-1.25c-0.53,0-0.53,0.03-0.53,0.66V31.88z"/>
	</g>
	<path class="st0" d="M126.3,81.66c-3.06-0.11-5.25-0.16-7.32-0.16c-2.06,0-4.3,0.05-7.72,0.16l-0.06,0l-0.05-0.03
		c-0.24-0.13-0.41-0.45-0.44-0.87c-0.03-0.35,0.04-0.79,0.31-0.99l0.05-0.03l2.15-0.26c2.21-0.2,2.6-0.23,2.6-5.62v-22.3
		c0-2.06,0-2.06-1.13-2.06h-2.79c-4.42,0-5.74,0.45-7.58,4.62c-0.21,0.21-0.46,0.29-0.75,0.29c-0.48,0-1.07-0.21-1.25-0.66
		l-0.03-0.07l0.02-0.07c0.83-2.71,1.57-5.86,1.94-7.77c0.23-0.38,0.63-0.38,0.76-0.38c0.32,0,0.55,0.11,0.68,0.31
		c0.24,1.17,0.75,1.24,4.15,1.24h20.33c2.38,0,3.05-0.14,3.59-1.22l0.03-0.06l0.06-0.03c0.21-0.11,0.44-0.23,0.7-0.23
		c0.37,0,0.69,0.14,0.83,0.36l0.05,0.08l-0.02,0.09c-0.49,2.08-0.89,6.49-0.74,8.14l0.01,0.07l-0.04,0.06
		c-0.18,0.29-0.57,0.48-1.03,0.48c-0.32,0-0.62-0.1-0.83-0.27l-0.06-0.05l-0.01-0.08c-0.62-3.85-1.36-4.83-6.71-4.83h-2.84
		c-1.13,0-1.13,0-1.13,2.06v22.3c0,5.38,0.4,5.43,2.6,5.67l1.87,0.22l0.05,0.06c0.27,0.28,0.33,0.77,0.27,1.13
		c-0.06,0.34-0.21,0.59-0.43,0.71l-0.05,0.03L126.3,81.66z"/>
	<path class="st0" d="M153.47,82.33c-8.92,0-17.96-6.05-17.96-17.61c0-10.74,7.59-18.54,18.06-18.54c12.13,0,17.66,9.42,17.66,18.18
		C171.23,74.61,163.6,82.33,153.47,82.33z M152.92,48.68c-4.93,0-10.2,3.82-10.2,14.55c0,13.11,7.07,16.61,11.24,16.61
		c6.39,0,10.05-5.3,10.05-14.55C164.02,57.29,160.55,48.68,152.92,48.68z"/>
	<path class="st0" d="M198.96,81.66c-2.03-0.1-6.28-0.16-11.95-0.16h-5.18c-2.59,0-5.05,0.05-7.12,0.16l-0.06,0l-0.05-0.03
		c-0.33-0.17-0.48-0.65-0.49-1.02c-0.01-0.4,0.13-0.71,0.38-0.85l1.57-0.28c2.21-0.29,2.61-0.35,2.61-5.62v-19.2
		c0-5.27-0.4-5.33-2.61-5.67l-1.45-0.21l-0.04-0.03c-0.28-0.21-0.37-0.68-0.33-1.06c0.04-0.4,0.21-0.69,0.47-0.81l0.05-0.02l0.05,0
		c2.55,0.11,4.78,0.16,7.02,0.16c2.21,0,4.44-0.05,6.62-0.16l0.05,0l0.05,0.02c0.28,0.13,0.46,0.46,0.49,0.89
		c0.02,0.34-0.06,0.78-0.36,0.98l-1.17,0.24c-2.22,0.34-2.61,0.4-2.61,5.67v18.12c0,2.24,0.06,4.31,0.8,5.18
		c0.51,0.62,1.19,1.06,5.22,1.06c5.39,0,6.16-0.2,8.42-5.45l0.03-0.07l0.07-0.04c0.19-0.1,0.42-0.15,0.67-0.15
		c0.51,0,0.96,0.21,1.16,0.54l0.04,0.07L201.28,74c-0.4,2.19-1.51,6.14-2.11,7.53l-0.06,0.14L198.96,81.66z"/>
	<path class="st0" d="M230.56,81.66c-2.16-0.1-6.41-0.16-12.3-0.16h-5.68c-2.03,0-5.13,0.05-7.46,0.16l-0.06,0L205,81.64
		c-0.22-0.12-0.37-0.37-0.43-0.71c-0.05-0.33-0.02-0.83,0.27-1.13l0.05-0.06l1.92-0.22c2.2-0.24,2.6-0.29,2.6-5.67v-19.2
		c0-5.37-0.4-5.43-2.61-5.77l-0.87-0.11l-0.05-0.05c-0.29-0.3-0.33-0.79-0.27-1.13c0.06-0.34,0.21-0.59,0.43-0.71l0.05-0.03l0.06,0
		c1.79,0.1,4.13,0.15,6.42,0.15h9.52c3.49,0,6.12-0.06,6.69-0.15l0.2-0.03l0.04,0.2c0.11,0.49,0.25,1.87,0.4,3.46
		c0.13,1.34,0.26,2.72,0.4,3.73l0.01,0.07l-0.03,0.06c-0.18,0.38-0.72,0.51-1.12,0.51c-0.33,0-0.61-0.08-0.8-0.23l-0.06-0.04
		l-0.02-0.07c-0.82-3.07-1.54-4.17-2.99-4.54c-0.97-0.31-2.29-0.46-3.93-0.46h-3.34c-1.93,0-1.93,0-1.93,2.83v8.72
		c0,1.18,0,1.18,0.98,1.18H219c4.42,0,5-0.08,5.32-2.09l0.36-1.83l0.05-0.05c0.22-0.2,0.58-0.32,0.97-0.32
		c0.44,0,0.8,0.16,0.96,0.42l0.03,0.05l-0.04,1.06c-0.05,1.25-0.11,2.68-0.11,4.16c0,1.39,0.05,2.7,0.1,3.95
		c0.02,0.5,0.05,1.53,0.05,1.53l-0.04,0.06c-0.23,0.33-0.74,0.37-0.95,0.37c-0.38,0-0.73-0.1-0.95-0.27l-0.07-0.05l-0.36-2.15
		c-0.32-1.96-0.96-2.09-5.32-2.09h-2.39c-0.98,0-0.98,0-0.98,1.18v6.56c0,2.35,0.06,4.37,0.79,5.23c0.51,0.62,1.21,1.06,5.47,1.06
		l0.59,0c5.61,0,6.7-1.41,8.38-5.45l0.02-0.05l0.04-0.03c0.2-0.16,0.46-0.25,0.75-0.25c0.49,0,0.95,0.24,1.17,0.61l0.04,0.06
		l-0.01,0.07c-0.3,2.19-1.41,6.14-2.11,7.55l-0.06,0.13L230.56,81.66z"/>
	<path class="st0" d="M251.15,81.82c-1.72,0-3.2-0.1-4.52-0.18c-1.03-0.07-1.91-0.13-2.71-0.13c-1.94,0-4.19,0.06-6.32,0.16l-0.06,0
		l-0.05-0.03c-0.22-0.11-0.37-0.37-0.43-0.71c-0.05-0.33-0.02-0.83,0.27-1.13l0.05-0.05l1.17-0.17c2.21-0.29,2.6-0.34,2.6-5.72
		V54.97c0-5-0.05-5.38-2.21-5.67l-1.1-0.11l-0.05-0.04c-0.27-0.2-0.35-0.6-0.34-0.92c0.01-0.4,0.16-0.73,0.4-0.88l0.05-0.03l0.05,0
		c3.67-0.32,7.64-0.47,12.48-0.47c5.07,0,8.38,0.5,11.83,1.77c6.49,2.46,10.36,8.31,10.36,15.64c0,6.45-3.38,12.08-9.04,15.05
		C260.4,81,256.33,81.82,251.15,81.82z M251.6,49.35c-2.19,0-3.64,0.44-3.89,0.67c-0.3,0.27-0.33,1.69-0.33,3.66v18.17
		c0,4.91,0.24,7.47,5.42,7.47c8.03,0,12.64-5.47,12.64-15.01C265.43,54.8,260.39,49.35,251.6,49.35z"/>
	<path class="st0" d="M294.2,82.33c-8.92,0-17.96-6.05-17.96-17.61c0-10.74,7.59-18.54,18.06-18.54c12.13,0,17.66,9.42,17.66,18.18
		C311.96,74.61,304.33,82.33,294.2,82.33z M293.66,48.68c-4.93,0-10.2,3.82-10.2,14.55c0,13.11,7.07,16.61,11.25,16.61
		c6.39,0,10.05-5.3,10.05-14.55C304.75,57.29,301.28,48.68,293.66,48.68z"/>
	<path class="st0" d="M96.15,8.6C66.79,14.98,48.08,0,48.08,0S29.36,14.98,0,8.6c0,23.98-0.69,67.58,48.09,101.21
		C96.87,76.18,96.15,32.59,96.15,8.6z"/>
	<path class="st1" d="M48.02,102.11l-0.47-0.3c-0.28-0.18-27.65-18.04-36.61-49.94C5.17,31.31,6.07,16.48,6.08,16.33l0.06-0.9
		l0.89,0.09c0.12,0.01,12.16,1.2,21.56-0.78c10.64-2.24,18.92-6.69,19.01-6.74L48,7.79l0.41,0.22c0.08,0.04,8.53,4.5,19.15,6.74
		c9.4,1.98,21.44,0.79,21.56,0.78l0.89-0.09l0.06,0.9c0.01,0.15,0.9,14.98-4.87,35.54c-8.95,31.9-36.45,49.77-36.72,49.94
		L48.02,102.11z M7.77,17.33c-0.09,3.45-0.05,16.65,4.84,34.06c8.14,28.99,31.78,46.14,35.41,48.64
		c3.64-2.49,27.39-19.67,35.52-48.64c4.89-17.43,4.93-30.61,4.84-34.06c-3.04,0.25-12.93,0.85-21.17-0.89
		c-9.54-2.01-17.36-5.77-19.2-6.7c-1.83,0.93-9.54,4.69-19.07,6.7C20.7,18.18,10.82,17.58,7.77,17.33z"/>
	<g>
		<g>
			<g>
				<path class="st2" d="M48.73,29.32c-0.43,0.02-1.06,0.11-1.89,0.28c-0.83,0.17-1.51,0.42-2.03,0.76
					c-0.52,0.35-0.89,1.08-1.08,2.19c-0.2,1.11-0.3,2.46-0.3,4.06v14.24c0,1.82-0.38,3.39-1.13,4.73c-0.75,1.34-1.74,2.44-2.97,3.3
					c-1.21,0.83-2.49,1.43-3.84,1.79c-1.34,0.36-2.63,0.54-3.86,0.54c-1.97,0-3.72-0.26-5.25-0.77c-1.54-0.52-2.83-1.21-3.87-2.09
					c-1.03-0.88-1.81-1.88-2.33-3.01c-0.52-1.13-0.78-2.31-0.78-3.54V32.43c0-0.54-0.09-0.99-0.27-1.35c-0.18-0.36-0.54-0.7-1.09-1
					c-0.39-0.22-0.89-0.39-1.5-0.52c-0.61-0.13-1.11-0.21-1.5-0.24v-1.64h13.64v1.64c-0.43,0.02-0.97,0.08-1.62,0.21
					c-0.65,0.12-1.13,0.24-1.43,0.35c-0.52,0.18-0.87,0.49-1.04,0.92c-0.18,0.43-0.26,0.9-0.26,1.41v18.09c0,0.88,0.1,1.8,0.29,2.76
					c0.19,0.96,0.57,1.86,1.15,2.69c0.6,0.85,1.42,1.54,2.45,2.08c1.03,0.54,2.45,0.81,4.26,0.81c1.7,0,3.12-0.27,4.27-0.81
					c1.15-0.54,2.06-1.25,2.72-2.12c0.63-0.83,1.08-1.7,1.34-2.61c0.26-0.91,0.39-1.82,0.39-2.75V36.91c0-1.71-0.12-3.1-0.37-4.19
					c-0.25-1.08-0.61-1.8-1.08-2.13c-0.54-0.38-1.27-0.68-2.2-0.9c-0.93-0.22-1.64-0.34-2.13-0.37v-1.64h13.33V29.32z"/>
			</g>
			<g>
				<path class="st2" d="M76.67,43.91h-1.55c-0.14-0.54-0.38-1.19-0.74-1.93c-0.35-0.75-0.75-1.45-1.19-2.12
					c-0.45-0.69-0.95-1.3-1.48-1.82c-0.54-0.52-1.05-0.82-1.55-0.89c-0.47-0.06-1.06-0.11-1.77-0.14c-0.71-0.03-1.37-0.05-1.97-0.05
					H65.1v25.65c0,0.5,0.1,0.95,0.31,1.37c0.21,0.41,0.58,0.73,1.1,0.96c0.27,0.11,0.84,0.25,1.7,0.43
					c0.86,0.18,1.54,0.28,2.02,0.29v1.6H55.09v-1.6c0.42-0.03,1.07-0.09,1.93-0.18c0.87-0.09,1.47-0.2,1.8-0.34
					c0.5-0.2,0.86-0.48,1.1-0.85c0.23-0.37,0.35-0.86,0.35-1.48V36.97h-1.31c-0.47,0-1.05,0.01-1.74,0.03
					c-0.69,0.02-1.35,0.07-1.98,0.15c-0.5,0.06-1.01,0.36-1.54,0.89c-0.53,0.54-1.03,1.14-1.48,1.82c-0.45,0.68-0.85,1.4-1.2,2.16
					c-0.35,0.76-0.59,1.39-0.72,1.89h-1.6V35.2h27.96V43.91z"/>
			</g>
		</g>
		<g>
			<g>
				<path class="st2" d="M40.18,76.59c0,0,2.42-0.24,4.54,1.16c1.83,1.21,2.84,3.67,2.84,3.67s-3.02,0.29-4.96-0.99
					C40.47,79.03,40.18,76.59,40.18,76.59L40.18,76.59L40.18,76.59z"/>
				<path class="st2" d="M55.98,76.59c0,0-2.41-0.24-4.54,1.16c-1.82,1.21-2.83,3.67-2.83,3.67s3.01,0.29,4.95-0.99
					C55.69,79.03,55.98,76.59,55.98,76.59L55.98,76.59L55.98,76.59z"/>
			</g>
			<path class="st2" d="M48.08,67.5c0,0,2.26,3.16,2.26,6.28c0,2.93-2.26,5.99-2.26,5.99s-2.26-3.06-2.26-5.99
				C45.81,70.66,48.08,67.5,48.08,67.5z"/>
		</g>
	</g>
</g>
</svg>
